<?xml version="1.0" encoding="UTF-8"?>
<svg xmlns="http://www.w3.org/2000/svg" viewBox="0 0 64 64" role="img" aria-labelledby="title">
  <title id="title">settings</title>
  <style>
    .none{fill:none}.navy{fill:#0b1426}.teal{fill:#0e6677}.cyan{fill:#45d9f2}.cream{fill:#f6e8bd}
    .gold-stroke{stroke:#f4c95d;stroke-width:3;stroke-linecap:round;stroke-linejoin:round}
    .cyan-stroke{stroke:#45d9f2;stroke-width:3;stroke-linecap:round;stroke-linejoin:round}
    .teal-stroke{stroke:#0e6677;stroke-width:3;stroke-linecap:round;stroke-linejoin:round}
    .thin{stroke-width:2}.heavy{stroke-width:5}.dash{stroke-dasharray:4 4}
  </style>
  <path class="navy gold-stroke" d="m32 8 5 2 2 6 6 1 4 4-2 6 4 5-2 5-6 1-2 6-5 2-5-4-6 2-4-4 1-6-5-4 2-5 6-1 2-6 5-2 5 4 6-2 4 4-1 6 5 4-2 5-6 1-2 6-5 2-5-4-6 2-4-4 1-6-5-4 2-5 6-1 2-6 5-2z"/><circle class="cyan gold-stroke thin" cx="32" cy="32" r="8"/>
</svg>
